<mxfile host="app.diagrams.net" agent="Mozilla/5.0 (Windows NT 10.0; Win64; x64) AppleWebKit/537.36 (KHTML, like Gecko) Chrome/128.0.0.0 Safari/537.36" version="24.7.14">
  <diagram id="C5RBs43oDa-KdzZeNtuy" name="Page-1">
    <mxGraphModel dx="1340" dy="837" grid="1" gridSize="10" guides="1" tooltips="1" connect="1" arrows="1" fold="1" page="1" pageScale="1" pageWidth="827" pageHeight="1169" math="0" shadow="0">
      <root>
        <mxCell id="WIyWlLk6GJQsqaUBKTNV-0" />
        <mxCell id="WIyWlLk6GJQsqaUBKTNV-1" parent="WIyWlLk6GJQsqaUBKTNV-0" />
        <mxCell id="V5VWdpsO8mArwCuoE1pD-0" value="Cliente" style="swimlane;fontStyle=1;align=center;verticalAlign=top;childLayout=stackLayout;horizontal=1;startSize=26;horizontalStack=0;resizeParent=1;resizeParentMax=0;resizeLast=0;collapsible=1;marginBottom=0;whiteSpace=wrap;html=1;" vertex="1" parent="WIyWlLk6GJQsqaUBKTNV-1">
          <mxGeometry x="290" width="260" height="308" as="geometry" />
        </mxCell>
        <mxCell id="V5VWdpsO8mArwCuoE1pD-1" value="- nombre: String" style="text;strokeColor=none;fillColor=none;align=left;verticalAlign=top;spacingLeft=4;spacingRight=4;overflow=hidden;rotatable=0;points=[[0,0.5],[1,0.5]];portConstraint=eastwest;whiteSpace=wrap;html=1;" vertex="1" parent="V5VWdpsO8mArwCuoE1pD-0">
          <mxGeometry y="26" width="260" height="26" as="geometry" />
        </mxCell>
        <mxCell id="V5VWdpsO8mArwCuoE1pD-19" value="- apeliido: String" style="text;strokeColor=none;fillColor=none;align=left;verticalAlign=top;spacingLeft=4;spacingRight=4;overflow=hidden;rotatable=0;points=[[0,0.5],[1,0.5]];portConstraint=eastwest;whiteSpace=wrap;html=1;" vertex="1" parent="V5VWdpsO8mArwCuoE1pD-0">
          <mxGeometry y="52" width="260" height="26" as="geometry" />
        </mxCell>
        <mxCell id="V5VWdpsO8mArwCuoE1pD-22" value="- dirección: String" style="text;strokeColor=none;fillColor=none;align=left;verticalAlign=top;spacingLeft=4;spacingRight=4;overflow=hidden;rotatable=0;points=[[0,0.5],[1,0.5]];portConstraint=eastwest;whiteSpace=wrap;html=1;" vertex="1" parent="V5VWdpsO8mArwCuoE1pD-0">
          <mxGeometry y="78" width="260" height="26" as="geometry" />
        </mxCell>
        <mxCell id="V5VWdpsO8mArwCuoE1pD-21" value="- edad: int" style="text;strokeColor=none;fillColor=none;align=left;verticalAlign=top;spacingLeft=4;spacingRight=4;overflow=hidden;rotatable=0;points=[[0,0.5],[1,0.5]];portConstraint=eastwest;whiteSpace=wrap;html=1;" vertex="1" parent="V5VWdpsO8mArwCuoE1pD-0">
          <mxGeometry y="104" width="260" height="26" as="geometry" />
        </mxCell>
        <mxCell id="V5VWdpsO8mArwCuoE1pD-20" value="- sueldoNeto: float" style="text;strokeColor=none;fillColor=none;align=left;verticalAlign=top;spacingLeft=4;spacingRight=4;overflow=hidden;rotatable=0;points=[[0,0.5],[1,0.5]];portConstraint=eastwest;whiteSpace=wrap;html=1;" vertex="1" parent="V5VWdpsO8mArwCuoE1pD-0">
          <mxGeometry y="130" width="260" height="26" as="geometry" />
        </mxCell>
        <mxCell id="V5VWdpsO8mArwCuoE1pD-39" value="- saldo: float" style="text;strokeColor=none;fillColor=none;align=left;verticalAlign=top;spacingLeft=4;spacingRight=4;overflow=hidden;rotatable=0;points=[[0,0.5],[1,0.5]];portConstraint=eastwest;whiteSpace=wrap;html=1;" vertex="1" parent="V5VWdpsO8mArwCuoE1pD-0">
          <mxGeometry y="156" width="260" height="26" as="geometry" />
        </mxCell>
        <mxCell id="V5VWdpsO8mArwCuoE1pD-2" value="" style="line;strokeWidth=1;fillColor=none;align=left;verticalAlign=middle;spacingTop=-1;spacingLeft=3;spacingRight=3;rotatable=0;labelPosition=right;points=[];portConstraint=eastwest;strokeColor=inherit;" vertex="1" parent="V5VWdpsO8mArwCuoE1pD-0">
          <mxGeometry y="182" width="260" height="8" as="geometry" />
        </mxCell>
        <mxCell id="V5VWdpsO8mArwCuoE1pD-70" value="+ new(String, String, String, int, float, Banco, List&amp;lt;PropiedadInmobiliaria&amp;gt;)" style="text;strokeColor=none;fillColor=none;align=left;verticalAlign=top;spacingLeft=4;spacingRight=4;overflow=hidden;rotatable=0;points=[[0,0.5],[1,0.5]];portConstraint=eastwest;whiteSpace=wrap;html=1;fontStyle=4" vertex="1" parent="V5VWdpsO8mArwCuoE1pD-0">
          <mxGeometry y="190" width="260" height="40" as="geometry" />
        </mxCell>
        <mxCell id="V5VWdpsO8mArwCuoE1pD-3" value="+ getSueldoNetoAnual(): int" style="text;strokeColor=none;fillColor=none;align=left;verticalAlign=top;spacingLeft=4;spacingRight=4;overflow=hidden;rotatable=0;points=[[0,0.5],[1,0.5]];portConstraint=eastwest;whiteSpace=wrap;html=1;" vertex="1" parent="V5VWdpsO8mArwCuoE1pD-0">
          <mxGeometry y="230" width="260" height="26" as="geometry" />
        </mxCell>
        <mxCell id="V5VWdpsO8mArwCuoE1pD-55" value="+ solicitarCréditoHipotecario(int)" style="text;strokeColor=none;fillColor=none;align=left;verticalAlign=top;spacingLeft=4;spacingRight=4;overflow=hidden;rotatable=0;points=[[0,0.5],[1,0.5]];portConstraint=eastwest;whiteSpace=wrap;html=1;" vertex="1" parent="V5VWdpsO8mArwCuoE1pD-0">
          <mxGeometry y="256" width="260" height="26" as="geometry" />
        </mxCell>
        <mxCell id="V5VWdpsO8mArwCuoE1pD-31" value="+ solicitarCréditoPersonal(int)" style="text;strokeColor=none;fillColor=none;align=left;verticalAlign=top;spacingLeft=4;spacingRight=4;overflow=hidden;rotatable=0;points=[[0,0.5],[1,0.5]];portConstraint=eastwest;whiteSpace=wrap;html=1;" vertex="1" parent="V5VWdpsO8mArwCuoE1pD-0">
          <mxGeometry y="282" width="260" height="26" as="geometry" />
        </mxCell>
        <mxCell id="V5VWdpsO8mArwCuoE1pD-4" value="Banco" style="swimlane;fontStyle=1;align=center;verticalAlign=top;childLayout=stackLayout;horizontal=1;startSize=26;horizontalStack=0;resizeParent=1;resizeParentMax=0;resizeLast=0;collapsible=1;marginBottom=0;whiteSpace=wrap;html=1;" vertex="1" parent="WIyWlLk6GJQsqaUBKTNV-1">
          <mxGeometry x="730" y="85" width="250" height="158" as="geometry" />
        </mxCell>
        <mxCell id="V5VWdpsO8mArwCuoE1pD-40" value="- saldo: float" style="text;strokeColor=none;fillColor=none;align=left;verticalAlign=top;spacingLeft=4;spacingRight=4;overflow=hidden;rotatable=0;points=[[0,0.5],[1,0.5]];portConstraint=eastwest;whiteSpace=wrap;html=1;" vertex="1" parent="V5VWdpsO8mArwCuoE1pD-4">
          <mxGeometry y="26" width="250" height="26" as="geometry" />
        </mxCell>
        <mxCell id="V5VWdpsO8mArwCuoE1pD-6" value="" style="line;strokeWidth=1;fillColor=none;align=left;verticalAlign=middle;spacingTop=-1;spacingLeft=3;spacingRight=3;rotatable=0;labelPosition=right;points=[];portConstraint=eastwest;strokeColor=inherit;" vertex="1" parent="V5VWdpsO8mArwCuoE1pD-4">
          <mxGeometry y="52" width="250" height="8" as="geometry" />
        </mxCell>
        <mxCell id="V5VWdpsO8mArwCuoE1pD-81" value="+ new(int)" style="text;strokeColor=none;fillColor=none;align=left;verticalAlign=top;spacingLeft=4;spacingRight=4;overflow=hidden;rotatable=0;points=[[0,0.5],[1,0.5]];portConstraint=eastwest;whiteSpace=wrap;html=1;fontStyle=4" vertex="1" parent="V5VWdpsO8mArwCuoE1pD-4">
          <mxGeometry y="60" width="250" height="46" as="geometry" />
        </mxCell>
        <mxCell id="V5VWdpsO8mArwCuoE1pD-82" value="+ otorgarCrédito(SolicitudDeCrédito)" style="text;strokeColor=none;fillColor=none;align=left;verticalAlign=top;spacingLeft=4;spacingRight=4;overflow=hidden;rotatable=0;points=[[0,0.5],[1,0.5]];portConstraint=eastwest;whiteSpace=wrap;html=1;" vertex="1" parent="V5VWdpsO8mArwCuoE1pD-4">
          <mxGeometry y="106" width="250" height="26" as="geometry" />
        </mxCell>
        <mxCell id="V5VWdpsO8mArwCuoE1pD-7" value="+ afiliarCliente(Cliente)" style="text;strokeColor=none;fillColor=none;align=left;verticalAlign=top;spacingLeft=4;spacingRight=4;overflow=hidden;rotatable=0;points=[[0,0.5],[1,0.5]];portConstraint=eastwest;whiteSpace=wrap;html=1;" vertex="1" parent="V5VWdpsO8mArwCuoE1pD-4">
          <mxGeometry y="132" width="250" height="26" as="geometry" />
        </mxCell>
        <mxCell id="V5VWdpsO8mArwCuoE1pD-8" value="&lt;i&gt;SolicitudDeCrédito&lt;/i&gt;" style="swimlane;fontStyle=1;align=center;verticalAlign=top;childLayout=stackLayout;horizontal=1;startSize=26;horizontalStack=0;resizeParent=1;resizeParentMax=0;resizeLast=0;collapsible=1;marginBottom=0;whiteSpace=wrap;html=1;" vertex="1" parent="WIyWlLk6GJQsqaUBKTNV-1">
          <mxGeometry x="540" y="370" width="200" height="164" as="geometry" />
        </mxCell>
        <mxCell id="V5VWdpsO8mArwCuoE1pD-9" value="- cliente: Cliente" style="text;strokeColor=none;fillColor=none;align=left;verticalAlign=top;spacingLeft=4;spacingRight=4;overflow=hidden;rotatable=0;points=[[0,0.5],[1,0.5]];portConstraint=eastwest;whiteSpace=wrap;html=1;" vertex="1" parent="V5VWdpsO8mArwCuoE1pD-8">
          <mxGeometry y="26" width="200" height="26" as="geometry" />
        </mxCell>
        <mxCell id="V5VWdpsO8mArwCuoE1pD-52" value="- monto: float" style="text;strokeColor=none;fillColor=none;align=left;verticalAlign=top;spacingLeft=4;spacingRight=4;overflow=hidden;rotatable=0;points=[[0,0.5],[1,0.5]];portConstraint=eastwest;whiteSpace=wrap;html=1;" vertex="1" parent="V5VWdpsO8mArwCuoE1pD-8">
          <mxGeometry y="52" width="200" height="26" as="geometry" />
        </mxCell>
        <mxCell id="V5VWdpsO8mArwCuoE1pD-53" value="- plazoMeses: int" style="text;strokeColor=none;fillColor=none;align=left;verticalAlign=top;spacingLeft=4;spacingRight=4;overflow=hidden;rotatable=0;points=[[0,0.5],[1,0.5]];portConstraint=eastwest;whiteSpace=wrap;html=1;" vertex="1" parent="V5VWdpsO8mArwCuoE1pD-8">
          <mxGeometry y="78" width="200" height="26" as="geometry" />
        </mxCell>
        <mxCell id="V5VWdpsO8mArwCuoE1pD-10" value="" style="line;strokeWidth=1;fillColor=none;align=left;verticalAlign=middle;spacingTop=-1;spacingLeft=3;spacingRight=3;rotatable=0;labelPosition=right;points=[];portConstraint=eastwest;strokeColor=inherit;" vertex="1" parent="V5VWdpsO8mArwCuoE1pD-8">
          <mxGeometry y="104" width="200" height="8" as="geometry" />
        </mxCell>
        <mxCell id="V5VWdpsO8mArwCuoE1pD-11" value="+ getMontoMensual(): int" style="text;strokeColor=none;fillColor=none;align=left;verticalAlign=top;spacingLeft=4;spacingRight=4;overflow=hidden;rotatable=0;points=[[0,0.5],[1,0.5]];portConstraint=eastwest;whiteSpace=wrap;html=1;" vertex="1" parent="V5VWdpsO8mArwCuoE1pD-8">
          <mxGeometry y="112" width="200" height="26" as="geometry" />
        </mxCell>
        <mxCell id="V5VWdpsO8mArwCuoE1pD-54" value="&lt;i&gt;+ realizarChequeo()&lt;/i&gt;" style="text;strokeColor=none;fillColor=none;align=left;verticalAlign=top;spacingLeft=4;spacingRight=4;overflow=hidden;rotatable=0;points=[[0,0.5],[1,0.5]];portConstraint=eastwest;whiteSpace=wrap;html=1;" vertex="1" parent="V5VWdpsO8mArwCuoE1pD-8">
          <mxGeometry y="138" width="200" height="26" as="geometry" />
        </mxCell>
        <mxCell id="V5VWdpsO8mArwCuoE1pD-13" value="&lt;p style=&quot;margin:0px;margin-top:4px;text-align:center;&quot;&gt;&lt;i&gt;&amp;lt;&amp;lt;Interface&amp;gt;&amp;gt;&lt;/i&gt;&lt;br/&gt;&lt;b&gt;Interface&lt;/b&gt;&lt;/p&gt;&lt;hr size=&quot;1&quot; style=&quot;border-style:solid;&quot;/&gt;&lt;p style=&quot;margin:0px;margin-left:4px;&quot;&gt;+ field1: Type&lt;br/&gt;+ field2: Type&lt;/p&gt;&lt;hr size=&quot;1&quot; style=&quot;border-style:solid;&quot;/&gt;&lt;p style=&quot;margin:0px;margin-left:4px;&quot;&gt;+ method1(Type): Type&lt;br/&gt;+ method2(Type, Type): Type&lt;/p&gt;" style="verticalAlign=top;align=left;overflow=fill;html=1;whiteSpace=wrap;" vertex="1" parent="WIyWlLk6GJQsqaUBKTNV-1">
          <mxGeometry x="-10" y="80" width="190" height="140" as="geometry" />
        </mxCell>
        <mxCell id="V5VWdpsO8mArwCuoE1pD-14" value="" style="endArrow=block;endFill=1;html=1;edgeStyle=orthogonalEdgeStyle;align=left;verticalAlign=top;rounded=0;fontSize=12;startSize=8;endSize=8;curved=1;entryX=1;entryY=0.5;entryDx=0;entryDy=0;" edge="1" parent="WIyWlLk6GJQsqaUBKTNV-1" target="V5VWdpsO8mArwCuoE1pD-1">
          <mxGeometry x="-1" relative="1" as="geometry">
            <mxPoint x="730" y="124" as="sourcePoint" />
            <mxPoint x="540" y="350" as="targetPoint" />
          </mxGeometry>
        </mxCell>
        <mxCell id="V5VWdpsO8mArwCuoE1pD-16" value="n" style="edgeLabel;html=1;align=center;verticalAlign=middle;resizable=0;points=[];fontSize=12;" vertex="1" connectable="0" parent="V5VWdpsO8mArwCuoE1pD-14">
          <mxGeometry x="-0.3636" relative="1" as="geometry">
            <mxPoint x="-101" y="1" as="offset" />
          </mxGeometry>
        </mxCell>
        <mxCell id="V5VWdpsO8mArwCuoE1pD-17" value="clientes" style="edgeLabel;html=1;align=center;verticalAlign=middle;resizable=0;points=[];fontSize=12;" vertex="1" connectable="0" parent="V5VWdpsO8mArwCuoE1pD-14">
          <mxGeometry x="0.2727" y="-1" relative="1" as="geometry">
            <mxPoint x="19" as="offset" />
          </mxGeometry>
        </mxCell>
        <mxCell id="V5VWdpsO8mArwCuoE1pD-27" value="" style="endArrow=block;endFill=1;html=1;edgeStyle=orthogonalEdgeStyle;align=left;verticalAlign=top;rounded=0;fontSize=12;startSize=8;endSize=8;curved=1;entryX=-0.006;entryY=0.117;entryDx=0;entryDy=0;entryPerimeter=0;" edge="1" parent="WIyWlLk6GJQsqaUBKTNV-1" target="V5VWdpsO8mArwCuoE1pD-81">
          <mxGeometry x="-1" relative="1" as="geometry">
            <mxPoint x="550" y="180" as="sourcePoint" />
            <mxPoint x="710" y="150" as="targetPoint" />
            <Array as="points">
              <mxPoint x="560" y="180" />
              <mxPoint x="560" y="150" />
            </Array>
          </mxGeometry>
        </mxCell>
        <mxCell id="V5VWdpsO8mArwCuoE1pD-28" value="1" style="edgeLabel;resizable=0;html=1;align=left;verticalAlign=bottom;" connectable="0" vertex="1" parent="V5VWdpsO8mArwCuoE1pD-27">
          <mxGeometry x="-1" relative="1" as="geometry">
            <mxPoint x="100" y="-9" as="offset" />
          </mxGeometry>
        </mxCell>
        <mxCell id="V5VWdpsO8mArwCuoE1pD-29" value="bancoAfiliado" style="edgeLabel;html=1;align=center;verticalAlign=middle;resizable=0;points=[];fontSize=12;" vertex="1" connectable="0" parent="V5VWdpsO8mArwCuoE1pD-27">
          <mxGeometry x="-0.2181" y="3" relative="1" as="geometry">
            <mxPoint x="18" as="offset" />
          </mxGeometry>
        </mxCell>
        <mxCell id="V5VWdpsO8mArwCuoE1pD-32" value="" style="endArrow=block;endFill=1;html=1;edgeStyle=orthogonalEdgeStyle;align=left;verticalAlign=top;rounded=0;fontSize=12;startSize=8;endSize=8;curved=1;entryX=0.5;entryY=0;entryDx=0;entryDy=0;exitX=0.432;exitY=1;exitDx=0;exitDy=0;exitPerimeter=0;" edge="1" parent="WIyWlLk6GJQsqaUBKTNV-1" source="V5VWdpsO8mArwCuoE1pD-31" target="V5VWdpsO8mArwCuoE1pD-8">
          <mxGeometry x="-1" relative="1" as="geometry">
            <mxPoint x="560" y="312.5" as="sourcePoint" />
            <mxPoint x="757" y="270" as="targetPoint" />
            <Array as="points">
              <mxPoint x="402" y="350" />
              <mxPoint x="640" y="350" />
            </Array>
          </mxGeometry>
        </mxCell>
        <mxCell id="V5VWdpsO8mArwCuoE1pD-34" value="SolicitudesCrédito" style="edgeLabel;html=1;align=center;verticalAlign=middle;resizable=0;points=[];fontSize=12;" vertex="1" connectable="0" parent="V5VWdpsO8mArwCuoE1pD-32">
          <mxGeometry x="-0.2181" y="3" relative="1" as="geometry">
            <mxPoint x="18" as="offset" />
          </mxGeometry>
        </mxCell>
        <mxCell id="V5VWdpsO8mArwCuoE1pD-35" value="n" style="edgeLabel;html=1;align=center;verticalAlign=middle;resizable=0;points=[];fontSize=12;" vertex="1" connectable="0" parent="V5VWdpsO8mArwCuoE1pD-32">
          <mxGeometry x="0.8" y="-3" relative="1" as="geometry">
            <mxPoint as="offset" />
          </mxGeometry>
        </mxCell>
        <mxCell id="V5VWdpsO8mArwCuoE1pD-42" value="SolicitudDeCréditoPersonal" style="swimlane;fontStyle=1;align=center;verticalAlign=top;childLayout=stackLayout;horizontal=1;startSize=26;horizontalStack=0;resizeParent=1;resizeParentMax=0;resizeLast=0;collapsible=1;marginBottom=0;whiteSpace=wrap;html=1;" vertex="1" parent="WIyWlLk6GJQsqaUBKTNV-1">
          <mxGeometry x="414" y="660" width="176" height="62" as="geometry" />
        </mxCell>
        <mxCell id="V5VWdpsO8mArwCuoE1pD-44" value="" style="line;strokeWidth=1;fillColor=none;align=left;verticalAlign=middle;spacingTop=-1;spacingLeft=3;spacingRight=3;rotatable=0;labelPosition=right;points=[];portConstraint=eastwest;strokeColor=inherit;" vertex="1" parent="V5VWdpsO8mArwCuoE1pD-42">
          <mxGeometry y="26" width="176" height="8" as="geometry" />
        </mxCell>
        <mxCell id="V5VWdpsO8mArwCuoE1pD-78" value="+ new(Cliente, float, int)" style="text;strokeColor=none;fillColor=none;align=left;verticalAlign=top;spacingLeft=4;spacingRight=4;overflow=hidden;rotatable=0;points=[[0,0.5],[1,0.5]];portConstraint=eastwest;whiteSpace=wrap;html=1;fontStyle=4" vertex="1" parent="V5VWdpsO8mArwCuoE1pD-42">
          <mxGeometry y="34" width="176" height="28" as="geometry" />
        </mxCell>
        <mxCell id="V5VWdpsO8mArwCuoE1pD-46" value="SolicitudDeCréditoHipotecario" style="swimlane;fontStyle=1;align=center;verticalAlign=top;childLayout=stackLayout;horizontal=1;startSize=26;horizontalStack=0;resizeParent=1;resizeParentMax=0;resizeLast=0;collapsible=1;marginBottom=0;whiteSpace=wrap;html=1;" vertex="1" parent="WIyWlLk6GJQsqaUBKTNV-1">
          <mxGeometry x="720" y="660" width="210" height="80" as="geometry" />
        </mxCell>
        <mxCell id="V5VWdpsO8mArwCuoE1pD-48" value="" style="line;strokeWidth=1;fillColor=none;align=left;verticalAlign=middle;spacingTop=-1;spacingLeft=3;spacingRight=3;rotatable=0;labelPosition=right;points=[];portConstraint=eastwest;strokeColor=inherit;" vertex="1" parent="V5VWdpsO8mArwCuoE1pD-46">
          <mxGeometry y="26" width="210" height="8" as="geometry" />
        </mxCell>
        <mxCell id="V5VWdpsO8mArwCuoE1pD-79" value="+ new(Cliente, float, int, PropiedadInmobiliaria)" style="text;strokeColor=none;fillColor=none;align=left;verticalAlign=top;spacingLeft=4;spacingRight=4;overflow=hidden;rotatable=0;points=[[0,0.5],[1,0.5]];portConstraint=eastwest;whiteSpace=wrap;html=1;fontStyle=4" vertex="1" parent="V5VWdpsO8mArwCuoE1pD-46">
          <mxGeometry y="34" width="210" height="46" as="geometry" />
        </mxCell>
        <mxCell id="V5VWdpsO8mArwCuoE1pD-50" value="" style="endArrow=block;endSize=16;endFill=0;html=1;rounded=0;fontSize=12;curved=1;exitX=0.5;exitY=0;exitDx=0;exitDy=0;entryX=0.435;entryY=1.154;entryDx=0;entryDy=0;entryPerimeter=0;" edge="1" parent="WIyWlLk6GJQsqaUBKTNV-1" source="V5VWdpsO8mArwCuoE1pD-42" target="V5VWdpsO8mArwCuoE1pD-54">
          <mxGeometry width="160" relative="1" as="geometry">
            <mxPoint x="570" y="570" as="sourcePoint" />
            <mxPoint x="630" y="520" as="targetPoint" />
          </mxGeometry>
        </mxCell>
        <mxCell id="V5VWdpsO8mArwCuoE1pD-51" value="" style="endArrow=block;endSize=16;endFill=0;html=1;rounded=0;fontSize=12;curved=1;exitX=0.5;exitY=0;exitDx=0;exitDy=0;entryX=0.49;entryY=1;entryDx=0;entryDy=0;entryPerimeter=0;" edge="1" parent="WIyWlLk6GJQsqaUBKTNV-1" source="V5VWdpsO8mArwCuoE1pD-46" target="V5VWdpsO8mArwCuoE1pD-54">
          <mxGeometry width="160" relative="1" as="geometry">
            <mxPoint x="494" y="674" as="sourcePoint" />
            <mxPoint x="640" y="520" as="targetPoint" />
          </mxGeometry>
        </mxCell>
        <mxCell id="V5VWdpsO8mArwCuoE1pD-56" value="PropiedadInmobiliaria" style="swimlane;fontStyle=1;align=center;verticalAlign=top;childLayout=stackLayout;horizontal=1;startSize=26;horizontalStack=0;resizeParent=1;resizeParentMax=0;resizeLast=0;collapsible=1;marginBottom=0;whiteSpace=wrap;html=1;" vertex="1" parent="WIyWlLk6GJQsqaUBKTNV-1">
          <mxGeometry y="760" width="220" height="166" as="geometry" />
        </mxCell>
        <mxCell id="V5VWdpsO8mArwCuoE1pD-60" value="- descripción: String" style="text;strokeColor=none;fillColor=none;align=left;verticalAlign=top;spacingLeft=4;spacingRight=4;overflow=hidden;rotatable=0;points=[[0,0.5],[1,0.5]];portConstraint=eastwest;whiteSpace=wrap;html=1;" vertex="1" parent="V5VWdpsO8mArwCuoE1pD-56">
          <mxGeometry y="26" width="220" height="26" as="geometry" />
        </mxCell>
        <mxCell id="V5VWdpsO8mArwCuoE1pD-61" value="- dirección: String" style="text;strokeColor=none;fillColor=none;align=left;verticalAlign=top;spacingLeft=4;spacingRight=4;overflow=hidden;rotatable=0;points=[[0,0.5],[1,0.5]];portConstraint=eastwest;whiteSpace=wrap;html=1;" vertex="1" parent="V5VWdpsO8mArwCuoE1pD-56">
          <mxGeometry y="52" width="220" height="26" as="geometry" />
        </mxCell>
        <mxCell id="V5VWdpsO8mArwCuoE1pD-62" value="- valor: float" style="text;strokeColor=none;fillColor=none;align=left;verticalAlign=top;spacingLeft=4;spacingRight=4;overflow=hidden;rotatable=0;points=[[0,0.5],[1,0.5]];portConstraint=eastwest;whiteSpace=wrap;html=1;" vertex="1" parent="V5VWdpsO8mArwCuoE1pD-56">
          <mxGeometry y="78" width="220" height="26" as="geometry" />
        </mxCell>
        <mxCell id="V5VWdpsO8mArwCuoE1pD-63" value="" style="line;strokeWidth=1;fillColor=none;align=left;verticalAlign=middle;spacingTop=-1;spacingLeft=3;spacingRight=3;rotatable=0;labelPosition=right;points=[];portConstraint=eastwest;strokeColor=inherit;" vertex="1" parent="V5VWdpsO8mArwCuoE1pD-56">
          <mxGeometry y="104" width="220" height="8" as="geometry" />
        </mxCell>
        <mxCell id="V5VWdpsO8mArwCuoE1pD-80" value="+ new(String, String, float)" style="text;strokeColor=none;fillColor=none;align=left;verticalAlign=top;spacingLeft=4;spacingRight=4;overflow=hidden;rotatable=0;points=[[0,0.5],[1,0.5]];portConstraint=eastwest;whiteSpace=wrap;html=1;fontStyle=4" vertex="1" parent="V5VWdpsO8mArwCuoE1pD-56">
          <mxGeometry y="112" width="220" height="28" as="geometry" />
        </mxCell>
        <mxCell id="V5VWdpsO8mArwCuoE1pD-64" value="+ getValor(): int" style="text;strokeColor=none;fillColor=none;align=left;verticalAlign=top;spacingLeft=4;spacingRight=4;overflow=hidden;rotatable=0;points=[[0,0.5],[1,0.5]];portConstraint=eastwest;whiteSpace=wrap;html=1;" vertex="1" parent="V5VWdpsO8mArwCuoE1pD-56">
          <mxGeometry y="140" width="220" height="26" as="geometry" />
        </mxCell>
        <mxCell id="V5VWdpsO8mArwCuoE1pD-67" value="" style="endArrow=block;endFill=1;html=1;edgeStyle=orthogonalEdgeStyle;align=left;verticalAlign=top;rounded=0;fontSize=12;startSize=8;endSize=8;curved=1;entryX=0.5;entryY=0;entryDx=0;entryDy=0;exitX=-0.005;exitY=-0.077;exitDx=0;exitDy=0;exitPerimeter=0;" edge="1" parent="WIyWlLk6GJQsqaUBKTNV-1" source="V5VWdpsO8mArwCuoE1pD-3" target="V5VWdpsO8mArwCuoE1pD-56">
          <mxGeometry x="-1" relative="1" as="geometry">
            <mxPoint x="310" y="369.5" as="sourcePoint" />
            <mxPoint x="120" y="354.5" as="targetPoint" />
          </mxGeometry>
        </mxCell>
        <mxCell id="V5VWdpsO8mArwCuoE1pD-68" value="n" style="edgeLabel;html=1;align=center;verticalAlign=middle;resizable=0;points=[];fontSize=12;" vertex="1" connectable="0" parent="V5VWdpsO8mArwCuoE1pD-67">
          <mxGeometry x="-0.3636" relative="1" as="geometry">
            <mxPoint x="-101" y="1" as="offset" />
          </mxGeometry>
        </mxCell>
        <mxCell id="V5VWdpsO8mArwCuoE1pD-69" value="propiedades" style="edgeLabel;html=1;align=center;verticalAlign=middle;resizable=0;points=[];fontSize=12;" vertex="1" connectable="0" parent="V5VWdpsO8mArwCuoE1pD-67">
          <mxGeometry x="0.2727" y="-1" relative="1" as="geometry">
            <mxPoint x="19" as="offset" />
          </mxGeometry>
        </mxCell>
        <mxCell id="V5VWdpsO8mArwCuoE1pD-76" value="n" style="edgeLabel;html=1;align=center;verticalAlign=middle;resizable=0;points=[];fontSize=12;" vertex="1" connectable="0" parent="V5VWdpsO8mArwCuoE1pD-67">
          <mxGeometry x="0.7645" y="-1" relative="1" as="geometry">
            <mxPoint as="offset" />
          </mxGeometry>
        </mxCell>
        <mxCell id="V5VWdpsO8mArwCuoE1pD-71" value="" style="endArrow=block;endFill=1;html=1;edgeStyle=orthogonalEdgeStyle;align=left;verticalAlign=top;rounded=0;fontSize=12;startSize=8;endSize=8;curved=1;entryX=1.009;entryY=-0.154;entryDx=0;entryDy=0;entryPerimeter=0;exitX=0.52;exitY=0.988;exitDx=0;exitDy=0;exitPerimeter=0;" edge="1" parent="WIyWlLk6GJQsqaUBKTNV-1" source="V5VWdpsO8mArwCuoE1pD-79" target="V5VWdpsO8mArwCuoE1pD-62">
          <mxGeometry x="-1" relative="1" as="geometry">
            <mxPoint x="830" y="700" as="sourcePoint" />
            <mxPoint x="341" y="1082" as="targetPoint" />
          </mxGeometry>
        </mxCell>
        <mxCell id="V5VWdpsO8mArwCuoE1pD-74" value="garantía" style="edgeLabel;html=1;align=center;verticalAlign=middle;resizable=0;points=[];fontSize=12;" vertex="1" connectable="0" parent="V5VWdpsO8mArwCuoE1pD-71">
          <mxGeometry x="0.2673" y="-9" relative="1" as="geometry">
            <mxPoint x="-1" as="offset" />
          </mxGeometry>
        </mxCell>
        <mxCell id="V5VWdpsO8mArwCuoE1pD-75" value="1" style="edgeLabel;html=1;align=center;verticalAlign=middle;resizable=0;points=[];fontSize=12;" vertex="1" connectable="0" parent="V5VWdpsO8mArwCuoE1pD-71">
          <mxGeometry x="0.8707" y="1" relative="1" as="geometry">
            <mxPoint as="offset" />
          </mxGeometry>
        </mxCell>
      </root>
    </mxGraphModel>
  </diagram>
</mxfile>
